<svg id="Layer_1" data-name="Layer 1" xmlns="http://www.w3.org/2000/svg" viewBox="0 0 1024 1024"><defs><style>.cls-1{fill:#f9d438;}.cls-2{fill:#fff6d2;}.cls-3{fill:#fff;}</style></defs><title>logo-patched-color</title><rect class="cls-1" x="74.5" y="90.5" width="875" height="843" rx="135.6" ry="135.6"/><path class="cls-2" d="M875.62,716.08,732.37,547.8a17.53,17.53,0,0,0-10.13-6.53L573,504.62l-1.1.16a168.79,168.79,0,0,1-15,29.89l9.08-.91,29.65,139.41L390.83,706.46l24-93.51H396.38L371.91,708l-177.2-31.35,104-137.12V492.79a18.06,18.06,0,0,0-15,7L148.26,678.32a18.19,18.19,0,0,0-2.43,17.44,17.82,17.82,0,0,0,13.6,11.11l213.83,37.89a18,18,0,0,0,6.09.07l229.78-37.45,249.59,37.45a14.33,14.33,0,0,0,2.67.24,18,18,0,0,0,14.23-29ZM613.73,671.77,581.38,532.32l132,32.29L819.87,702.68Z"/><path class="cls-3" d="M292.42,317.22A26,26,0,0,0,266.32,343a25.47,25.47,0,0,0,16.58,24,2.6,2.6,0,0,0,1.41.36,3,3,0,0,0,3.17-2.47,3.67,3.67,0,0,0-2.12-4.59,18.24,18.24,0,0,1-12-17.28,18.9,18.9,0,0,1,19.05-18.69,3.33,3.33,0,0,0,3.52-3.52A3.53,3.53,0,0,0,292.42,317.22Z"/><path class="cls-3" d="M283.25,438.18a3.54,3.54,0,1,0-7.05-.7c-.71,8.11,4.93,14.45,5.29,14.81a3.2,3.2,0,0,0,2.46,1,5.11,5.11,0,0,0,2.47-.7c1.41-1.41,1.77-3.53.35-4.94C286.77,447.7,282.9,443.12,283.25,438.18Z"/><path class="cls-3" d="M473.72,577.27H341.89a5.49,5.49,0,0,0-5.13,3.36c0,.06-.05.11-.07.16s-.12.36-.17.55a8,8,0,0,0-.15.8c0,.05,0,.09,0,.14a3.85,3.85,0,0,0,0,.48V583a5.72,5.72,0,0,0,5.76,5.24H473.94a5.5,5.5,0,0,0,5.13-3.37l.06-.17c.06-.18.12-.35.17-.54a5.62,5.62,0,0,0,.15-.8s0-.09,0-.14,0-.32,0-.48v-.24A5.71,5.71,0,0,0,473.72,577.27Z"/><path class="cls-3" d="M507.77,430.77c-2.12-.35-4.24.71-6,2.12a8.33,8.33,0,0,0-2.47,5.64v90.63a7.21,7.21,0,0,0,4.94,7.06,6.9,6.9,0,0,0,2.82.35,8.72,8.72,0,0,0,6-2.82c24-28.21,35.61-62.07,28.56-82.17C538.8,443.12,530.34,432.54,507.77,430.77Zm9.55,74.06V447.35c6.7,1.76,10.58,4.94,12.35,9.17C532.84,466,529.31,484.73,517.32,504.83Z"/><path class="cls-3" d="M575.56,440.3c-4.94-14.82-19.75-39.5-62.15-44.09V395a56.47,56.47,0,0,0,35.31-39.86c8.66-37.6-19.58-70.91-55.67-70.91A57,57,0,0,0,455,298.85a46.46,46.46,0,0,0-15.64-2.49,51.77,51.77,0,0,0-21,4.62c-13.51-13.51-32-22.05-51.56-22.05A68.68,68.68,0,0,0,316,301.69a47.55,47.55,0,0,0-21-4.62c-26.67,0-48.36,21.34-48.36,47.65a46,46,0,0,0,23.47,40.54c0,.36,1.51,5,1.16,7.43-.36,4.23-.71,8.81-1.41,13.05-.36,1.76-3.27,13.4-3.27,13.4v-.21c-.37.72-1.46,4-1.83,5a9.2,9.2,0,0,0-1.09,2.52,31,31,0,0,0,0,28.83c5.47,10.45,16,16.58,28.09,16.58a33,33,0,0,0,6.95-.73V581c.1,18,32.94,31.52,32.94,31.52H482.82s32.09-13.19,32.44-30.82C556.87,547.15,591.78,486.85,575.56,440.3ZM300.82,457.22a19.12,19.12,0,0,1-8.82,2.12,18.52,18.52,0,0,1-16.57-27.16,14,14,0,0,0,1.41-3.17c.35-1.06,1.06-2.47,1.41-3.88a24.27,24.27,0,0,0,.71-2.47c.35-.7.35-1.76.7-2.47.35-1.05.35-1.76.71-2.82s.35-2.11.7-3.17c.36-2.12,1.06-4.23,1.41-6.35.71-4.58,1.41-9.17,1.77-14.1,0-2.47.35-4.94.35-7.06v-9.17c-13.4-5.29-22.92-18-22.92-32.79,0-19.4,16.22-35.27,36-35.27a37.74,37.74,0,0,1,24,8.82c9.17-16.22,26.8-26.8,46.9-26.8a55.28,55.28,0,0,1,47.26,26.8,36.8,36.8,0,0,1,42.32-3.88,44.83,44.83,0,1,1,34.91,73,45,45,0,0,1-32.45-13.76,35.33,35.33,0,0,1-20.8,6.35,37.71,37.71,0,0,1-24-8.81A54.53,54.53,0,0,1,368.53,398a55.28,55.28,0,0,1-47.26-26.8A36.76,36.76,0,0,1,299.41,380c0,2.12-.35,4.59,0,6.7a45.41,45.41,0,0,0,.35,7.06c.36,4.93,1.06,9.52,1.77,14.1a32.89,32.89,0,0,0,1.41,6.35c.35,1.06.35,2.12.7,3.17s.35,1.77.71,2.83a22.56,22.56,0,0,0,.7,2.46c.36.71.36,1.77.71,2.47.35,1.41,1.06,2.82,1.41,3.88a14.23,14.23,0,0,0,1.41,3.18A18.21,18.21,0,0,1,300.82,457.22Zm54.3-40.1V530.47c0,3.68-3.46,6.23-7.59,5a4.89,4.89,0,0,1-3.38-4.7h0V416.86h0a4.87,4.87,0,0,1,3.38-4.69C351.66,410.9,355.12,413.45,355.12,417.12ZM503,572.19a8.71,8.71,0,0,0-1.71,1.87,16.69,16.69,0,0,0-1.94,4.12V581c.26,2.94-1.19,5.73-3.3,8.18-.49.57-1,1.11-1.56,1.64s-1.38,1.27-2.1,1.85c-1,.82-2.08,1.58-3.08,2.25-.5.34-1,.66-1.46,1a48.89,48.89,0,0,1-4.6,2.54h-152s-16.93-8.24-18.4-17.41V463.6a29.18,29.18,0,0,0,8.54-13.68,30.4,30.4,0,0,0-2.16-23.79s-2.53-6.84-2.89-7.57c0,0-4.24-10.89-4.59-13-.71-4.26-1.07-8.53-1.42-13.15a9.79,9.79,0,0,0-.36-3.21,58.5,58.5,0,0,0,7.11-2.84A60,60,0,0,0,330.83,398V542c-.42,13.75,24.38,24.3,24.38,24.3H460.78s24.8-10.9,24.42-24.3V398.26a73.9,73.9,0,0,0,8.16.52c1.06,0,2.12,0,3.13-.09s2-.15,2.81-.27h0v4.85a10.2,10.2,0,0,0,2.21,4.66,9.32,9.32,0,0,0,1.19,1.16,8.46,8.46,0,0,0,1.22.83,8.77,8.77,0,0,0,3.62,1.11c35.26,2.11,48.66,19.74,53.6,34.56C574.89,485.08,542.45,541.16,503,572.19Z"/></svg>