<svg id="Layer_1" data-name="Layer 1" xmlns="http://www.w3.org/2000/svg" viewBox="0 0 1024 1024"><defs><style>.cls-1{fill:none;}</style></defs><title>logo-stroke-black</title><path d="M970.76,769.47,790,557.17a22.15,22.15,0,0,0-12.78-8.25L588.93,502.68l-1.39.21a212.6,212.6,0,0,1-19,37.71L580,539.46l37.41,175.89-258.28,42,30.31-118H366.13L335.25,759.29,111.69,719.74l131.25-173v-59A22.77,22.77,0,0,0,224,496.66L53.09,721.84a23,23,0,0,0-3.07,22,22.48,22.48,0,0,0,17.16,14L337,805.66a22.71,22.71,0,0,0,7.68.09l289.91-47.24,314.89,47.24a18.44,18.44,0,0,0,3.37.3,22.69,22.69,0,0,0,18-36.58Zm-330.41-55.9L599.53,537.63,766,578.38,900.43,752.57Z"/><path class="cls-1" d="M506.37,384.61a11.11,11.11,0,0,1-4.57-1.4,10.47,10.47,0,0,1-1.54-1,11.56,11.56,0,0,1-1.5-1.47,12.82,12.82,0,0,1-2.78-5.87V368.7c-1.08.15-2.28.26-3.55.34s-2.61.11-3.95.11a89.55,89.55,0,0,1-10.3-.65V549.84c.48,16.91-30.8,30.66-30.8,30.66H314.18s-31.28-13.3-30.75-30.66V368.22A75.37,75.37,0,0,1,266,353.45a76.24,76.24,0,0,1-9,3.59,12.34,12.34,0,0,1,.45,4c.45,5.84.9,11.22,1.79,16.61.45,2.69,5.8,16.44,5.8,16.44.45.91,3.64,9.55,3.64,9.55a38.26,38.26,0,0,1,2.72,30,36.78,36.78,0,0,1-10.77,17.26V599.06c1.86,11.57,23.21,22,23.21,22H475.67a62.4,62.4,0,0,0,5.79-3.21c.6-.37,1.22-.77,1.85-1.2,1.27-.85,2.59-1.8,3.88-2.84.91-.74,1.8-1.52,2.65-2.33.69-.67,1.36-1.36,2-2.07,2.67-3.09,4.49-6.61,4.17-10.33V595.5a20.72,20.72,0,0,1,2.45-5.21,10.73,10.73,0,0,1,2.16-2.35C550.42,548.78,591.35,478,574,428.21,567.77,409.52,550.86,387.27,506.37,384.61ZM471,601.85c0,.06,0,.13,0,.19a7.37,7.37,0,0,1-.2,1,4.89,4.89,0,0,1-.21.68.56.56,0,0,1,0,.12,1,1,0,0,1,0,.1,6.55,6.55,0,0,1-6.14,4.24h-167a6.85,6.85,0,0,1-6.83-5.55,9.6,9.6,0,0,1-.11-1v-.31c0-.19,0-.39,0-.6,0-.06,0-.12,0-.18a7.32,7.32,0,0,1,.19-1,5.68,5.68,0,0,1,.22-.7l0-.11,0-.09a6.56,6.56,0,0,1,6.14-4.25H464a6.87,6.87,0,0,1,6.83,5.56A7.46,7.46,0,0,1,471,601c0,.1,0,.2,0,.3S471,601.65,471,601.85Zm42.38-62.41a10.93,10.93,0,0,1-7.56,3.56,8.75,8.75,0,0,1-3.56-.44,9.08,9.08,0,0,1-6.23-8.9V419.31a10.5,10.5,0,0,1,3.11-7.12c2.23-1.78,4.9-3.11,7.57-2.67,28.47,2.23,39.15,15.57,42.71,26.25C558.27,461.13,543.59,503.85,513.33,539.44Z"/><path class="cls-1" d="M518.72,430.43V503c15.12-25.36,19.57-48.95,15.57-61C532.07,436.66,527.17,432.66,518.72,430.43Z"/><path class="cls-1" d="M297.38,594.34H297a6.56,6.56,0,0,0-6.14,4.25A6.93,6.93,0,0,1,297.38,594.34Z"/><path class="cls-1" d="M290.38,601.58a9.6,9.6,0,0,0,.11,1,6.85,6.85,0,0,0,6.83,5.55h.33A7.21,7.21,0,0,1,290.38,601.58Z"/><path class="cls-1" d="M471,601a7.46,7.46,0,0,0-.1-1.05,6.87,6.87,0,0,0-6.83-5.56h-.33A7.2,7.2,0,0,1,471,601Z"/><path class="cls-1" d="M304.49,386a6.16,6.16,0,0,0-4.26,5.92h0A6.16,6.16,0,0,1,304.49,386Z"/><path class="cls-1" d="M300.23,535.64h0a6.17,6.17,0,0,0,4.26,5.92A6.18,6.18,0,0,1,300.23,535.64Z"/><path class="cls-1" d="M253.57,407.3c-.44-1.34-1.33-3.12-1.78-4.9-.44-.89-.44-2.22-.89-3.11a30.54,30.54,0,0,1-.89-3.12c-.44-1.33-.44-2.22-.89-3.56s-.44-2.66-.89-4a42.63,42.63,0,0,1-1.78-8c-.89-5.78-1.78-11.57-2.22-17.8a57.27,57.27,0,0,1-.44-8.89c-.45-2.67,0-5.79,0-8.46,10.67-.44,20-4.89,27.58-11.12A69.72,69.72,0,0,0,331,368.14a68.76,68.76,0,0,0,59.62-33.81,47.64,47.64,0,0,0,30.26,11.12,44.69,44.69,0,0,0,26.25-8,56.57,56.57,0,1,0,43.56-95.6A56.13,56.13,0,0,0,444,262.69a46.47,46.47,0,0,0-53.39,4.9A69.73,69.73,0,0,0,331,233.77c-25.36,0-47.61,13.35-59.17,33.82a47.59,47.59,0,0,0-30.26-11.12c-24.91,0-45.38,20-45.38,44.49,0,18.69,12,34.7,28.92,41.38V353.9c0,2.67-.45,5.79-.45,8.9-.44,6.23-1.33,12-2.22,17.8-.45,2.67-1.34,5.34-1.78,8-.45,1.33-.45,2.67-.89,4s-.45,2.23-.89,3.56c-.45.89-.45,2.23-.89,3.12a31,31,0,0,1-.89,3.11c-.45,1.78-1.34,3.56-1.78,4.9a18.14,18.14,0,0,1-1.78,4,23.36,23.36,0,0,0,20.91,34.26,24.13,24.13,0,0,0,11.13-2.67,23,23,0,0,0,9.78-31.59A18.14,18.14,0,0,1,253.57,407.3ZM227.4,437.11a6.49,6.49,0,0,1-3.12.89,4,4,0,0,1-3.11-1.34c-.44-.44-7.56-8.45-6.67-18.68a4.47,4.47,0,1,1,8.89.88c-.44,6.23,4.45,12,4.45,12C229.62,432.66,229.18,435.33,227.4,437.11Zm7.56-162a23.83,23.83,0,0,0-24,23.58,23,23,0,0,0,15.12,21.81,4.62,4.62,0,0,1,2.67,5.78,3.8,3.8,0,0,1-4,3.11A3.39,3.39,0,0,1,223,329,32.13,32.13,0,0,1,202,298.73,32.76,32.76,0,0,1,235,266.25a4.46,4.46,0,0,1,4.45,4.45A4.2,4.2,0,0,1,235,275.15Z"/><path class="cls-1" d="M464,608.18h.33a6.55,6.55,0,0,0,6.14-4.24A6.92,6.92,0,0,1,464,608.18Z"/><path d="M235,266.25A32.76,32.76,0,0,0,202,298.73,32.13,32.13,0,0,0,223,329a3.39,3.39,0,0,0,1.78.44,3.8,3.8,0,0,0,4-3.11,4.62,4.62,0,0,0-2.67-5.78,23,23,0,0,1-15.12-21.81,23.83,23.83,0,0,1,24-23.58,4.2,4.2,0,0,0,4.45-4.45A4.46,4.46,0,0,0,235,266.25Z"/><path d="M223.39,418.86a4.47,4.47,0,1,0-8.89-.88c-.89,10.23,6.23,18.24,6.67,18.68a4,4,0,0,0,3.11,1.34,6.49,6.49,0,0,0,3.12-.89c1.78-1.78,2.22-4.45.44-6.23C227.84,430.88,223,425.09,223.39,418.86Z"/><path d="M463.71,594.34H297.38a6.93,6.93,0,0,0-6.48,4.25c0,.07,0,.13-.07.2a5.68,5.68,0,0,0-.22.7,7.32,7.32,0,0,0-.19,1c0,.06,0,.12,0,.18,0,.21,0,.41,0,.6v.31a7.21,7.21,0,0,0,7.27,6.6H464a6.92,6.92,0,0,0,6.47-4.24,1.43,1.43,0,0,0,.08-.22,4.89,4.89,0,0,0,.21-.68,7.37,7.37,0,0,0,.2-1c0-.06,0-.13,0-.19s0-.4,0-.6,0-.2,0-.3A7.2,7.2,0,0,0,463.71,594.34Z"/><path d="M290.86,598.68l0,.11c0-.07.05-.13.07-.2Z"/><path d="M470.49,603.84a.56.56,0,0,0,0-.12,1.43,1.43,0,0,1-.08.22A1,1,0,0,0,470.49,603.84Z"/><path d="M506.66,409.52c-2.67-.44-5.34.89-7.57,2.67a10.5,10.5,0,0,0-3.11,7.12V533.66a9.08,9.08,0,0,0,6.23,8.9,8.75,8.75,0,0,0,3.56.44,10.93,10.93,0,0,0,7.56-3.56c30.26-35.59,44.94-78.31,36-103.67C545.81,425.09,535.13,411.75,506.66,409.52ZM518.72,503V430.43c8.45,2.23,13.35,6.23,15.57,11.57C538.29,454,533.84,477.6,518.72,503Z"/><path class="cls-1" d="M253.57,407.3c-.44-1.34-1.33-3.12-1.78-4.9-.44-.89-.44-2.22-.89-3.11a30.54,30.54,0,0,1-.89-3.12c-.44-1.33-.44-2.22-.89-3.56s-.44-2.66-.89-4a42.63,42.63,0,0,1-1.78-8c-.89-5.78-1.78-11.57-2.22-17.8a57.27,57.27,0,0,1-.44-8.89c-.45-2.67,0-5.79,0-8.46,10.67-.44,20-4.89,27.58-11.12A69.72,69.72,0,0,0,331,368.14a68.76,68.76,0,0,0,59.62-33.81,47.64,47.64,0,0,0,30.26,11.12,44.69,44.69,0,0,0,26.25-8,56.57,56.57,0,1,0,43.56-95.6A56.13,56.13,0,0,0,444,262.69a46.47,46.47,0,0,0-53.39,4.9A69.73,69.73,0,0,0,331,233.77c-25.36,0-47.61,13.35-59.17,33.82a47.59,47.59,0,0,0-30.26-11.12c-24.91,0-45.38,20-45.38,44.49,0,18.69,12,34.7,28.92,41.38V353.9c0,2.67-.45,5.79-.45,8.9-.44,6.23-1.33,12-2.22,17.8-.45,2.67-1.34,5.34-1.78,8-.45,1.33-.45,2.67-.89,4s-.45,2.23-.89,3.56c-.45.89-.45,2.23-.89,3.12a31,31,0,0,1-.89,3.11c-.45,1.78-1.34,3.56-1.78,4.9a18.14,18.14,0,0,1-1.78,4,23.36,23.36,0,0,0,20.91,34.26,24.13,24.13,0,0,0,11.13-2.67,23,23,0,0,0,9.78-31.59A18.14,18.14,0,0,1,253.57,407.3Z"/><path class="cls-1" d="M304.49,386a6.16,6.16,0,0,0-4.26,5.92h0V535.64h0a6.17,6.17,0,0,0,4.26,5.92c5.21,1.59,9.58-1.63,9.58-6.26v-143C314.07,387.67,309.7,384.44,304.49,386Z"/><path class="cls-1" d="M506.37,384.61a11.11,11.11,0,0,1-4.57-1.4,10.47,10.47,0,0,1-1.54-1,11.56,11.56,0,0,1-1.5-1.47,12.82,12.82,0,0,1-2.78-5.87V368.7h0c-1.08.15-2.28.26-3.55.34s-2.61.11-3.95.11a89.55,89.55,0,0,1-10.3-.65V549.84c.48,16.91-30.8,30.66-30.8,30.66H314.18s-31.28-13.3-30.75-30.66V368.22A75.37,75.37,0,0,1,266,353.45a76.24,76.24,0,0,1-9,3.59,12.34,12.34,0,0,1,.45,4c.45,5.84.9,11.22,1.79,16.61.45,2.69,5.8,16.44,5.8,16.44.45.91,3.64,9.55,3.64,9.55a38.26,38.26,0,0,1,2.72,30,36.78,36.78,0,0,1-10.77,17.26V599.06c1.86,11.57,23.21,22,23.21,22H475.67a62.4,62.4,0,0,0,5.79-3.21c.6-.37,1.22-.77,1.85-1.2,1.27-.85,2.59-1.8,3.88-2.84.91-.74,1.8-1.52,2.65-2.33.69-.67,1.36-1.36,2-2.07,2.67-3.09,4.49-6.61,4.17-10.33V595.5a20.72,20.72,0,0,1,2.45-5.21,10.73,10.73,0,0,1,2.16-2.35C550.42,548.78,591.35,478,574,428.21,567.77,409.52,550.86,387.27,506.37,384.61Z"/><path d="M592.19,421.53c-6.23-18.68-24.91-49.83-78.42-55.61v-1.48c21.84-8.26,39.14-26.71,44.56-50.3,10.92-47.43-24.7-89.46-70.24-89.46a71.94,71.94,0,0,0-48,18.4,58.51,58.51,0,0,0-19.74-3.14,65.24,65.24,0,0,0-26.47,5.83C376.83,228.72,353.51,218,328.83,218a86.65,86.65,0,0,0-64.15,28.71,60.08,60.08,0,0,0-26.47-5.83c-33.64,0-61,26.92-61,60.12a58.1,58.1,0,0,0,29.61,51.15c0,.45,1.9,6.25,1.45,9.37-.44,5.34-.89,11.12-1.78,16.46-.44,2.23-4.12,16.91-4.12,16.91v-.27c-.46.91-1.84,5-2.3,6.37a11.83,11.83,0,0,0-1.38,3.18,39.11,39.11,0,0,0,0,36.37c6.9,13.19,20.25,20.92,35.44,20.92a42.19,42.19,0,0,0,8.77-.92V599.06c.13,22.69,41.56,39.77,41.56,39.77H475.19S515.67,622.2,516.12,600C568.61,556.35,612.66,480.27,592.19,421.53ZM245.57,442.89a24.13,24.13,0,0,1-11.13,2.67,23.36,23.36,0,0,1-20.91-34.26,18.14,18.14,0,0,0,1.78-4c.44-1.34,1.33-3.12,1.78-4.9a31,31,0,0,0,.89-3.11c.44-.89.44-2.23.89-3.12.44-1.33.44-2.22.89-3.56s.44-2.67.89-4c.44-2.67,1.33-5.34,1.78-8,.89-5.78,1.78-11.57,2.22-17.8,0-3.11.45-6.23.45-8.9V342.34c-16.91-6.68-28.92-22.69-28.92-41.38,0-24.47,20.47-44.49,45.38-44.49a47.59,47.59,0,0,1,30.26,11.12c11.56-20.47,33.81-33.82,59.17-33.82a69.73,69.73,0,0,1,59.62,33.82,46.47,46.47,0,0,1,53.39-4.9,56.56,56.56,0,1,1,44.05,92.11,56.73,56.73,0,0,1-40.93-17.36,44.69,44.69,0,0,1-26.25,8,47.64,47.64,0,0,1-30.26-11.12A68.76,68.76,0,0,1,331,368.14a69.72,69.72,0,0,1-59.62-33.81c-7.56,6.23-16.91,10.68-27.58,11.12,0,2.67-.45,5.79,0,8.46a57.27,57.27,0,0,0,.44,8.89c.44,6.23,1.33,12,2.22,17.8a42.63,42.63,0,0,0,1.78,8c.45,1.34.45,2.67.89,4s.45,2.23.89,3.56a30.54,30.54,0,0,0,.89,3.12c.45.89.45,2.22.89,3.11.45,1.78,1.34,3.56,1.78,4.9a18.14,18.14,0,0,0,1.78,4A23,23,0,0,1,245.57,442.89Zm68.5-50.59v143c0,4.63-4.37,7.85-9.58,6.26a6.17,6.17,0,0,1-4.26-5.92h0V392h0a6.16,6.16,0,0,1,4.26-5.92C309.7,384.44,314.07,387.67,314.07,392.3ZM500.59,587.94a10.73,10.73,0,0,0-2.16,2.35A20.72,20.72,0,0,0,496,595.5v3.56c.32,3.72-1.5,7.24-4.17,10.33-.61.71-1.28,1.4-2,2.07-.85.81-1.74,1.59-2.65,2.33-1.29,1-2.61,2-3.88,2.84-.63.43-1.25.83-1.85,1.2a62.4,62.4,0,0,1-5.79,3.21H283.9s-21.35-10.41-23.21-22V450.93a36.78,36.78,0,0,0,10.77-17.26,38.26,38.26,0,0,0-2.72-30s-3.19-8.64-3.64-9.55c0,0-5.35-13.75-5.8-16.44-.89-5.39-1.34-10.77-1.79-16.61a12.34,12.34,0,0,0-.45-4,76.24,76.24,0,0,0,9-3.59,75.37,75.37,0,0,0,17.4,14.77V549.84c-.53,17.36,30.75,30.66,30.75,30.66h133.2s31.28-13.75,30.8-30.66V368.5a89.55,89.55,0,0,0,10.3.65c1.34,0,2.68,0,3.95-.11s2.47-.19,3.55-.34h0v6.12a12.82,12.82,0,0,0,2.78,5.87,11.56,11.56,0,0,0,1.5,1.47,10.47,10.47,0,0,0,1.54,1,11.11,11.11,0,0,0,4.57,1.4c44.49,2.66,61.4,24.91,67.63,43.6C591.35,478,550.42,548.78,500.59,587.94Z"/><path d="M492.43,369c1.27-.08,2.47-.19,3.55-.34C494.9,368.85,493.7,369,492.43,369Z"/><path d="M496,599.06c.32,3.72-1.5,7.24-4.17,10.33,2.67-3.09,4.49-6.61,4.17-10.33V595.5a20.72,20.72,0,0,1,2.45-5.21A20.72,20.72,0,0,0,496,595.5Z"/><path d="M498.76,380.69a12.82,12.82,0,0,1-2.78-5.87V368.7h0v6.12A12.82,12.82,0,0,0,498.76,380.69Z"/></svg>