<svg id="Layer_1" data-name="Layer 1" xmlns="http://www.w3.org/2000/svg" viewBox="0 0 2067.99 741.9"><defs><style>.cls-1,.cls-3{fill:none;}.cls-2{fill:#fff;}.cls-3{stroke:#fff;stroke-linecap:round;stroke-linejoin:round;stroke-width:0;}</style></defs><title>type-stroke-white</title><path class="cls-1" d="M351.6,394.44v-143c0-4.63-4.37-7.85-9.58-6.26a6.16,6.16,0,0,0-4.26,5.92h0V394.77h0A6.14,6.14,0,0,0,342,400.7C347.23,402.3,351.6,399.07,351.6,394.44Z"/><path class="cls-1" d="M571.81,301.14c-2.22-5.34-7.11-9.35-15.57-11.57v72.52C571.37,336.73,575.82,313.15,571.81,301.14Z"/><path class="cls-1" d="M539.33,242.35a11.61,11.61,0,0,1-1.54-1,11.78,11.78,0,0,1-2.45-2.75,13.15,13.15,0,0,1-1.84-4.6v-6.11c-1.07.14-2.27.26-3.54.33s-2.61.12-4,.12a91.69,91.69,0,0,1-10.29-.65V409c.48,16.91-30.81,30.66-30.81,30.66H351.71S320.42,426.33,321,409V227.35a75,75,0,0,1-17.39-14.77,72.43,72.43,0,0,1-9,3.59,12.4,12.4,0,0,1,.45,4c.45,5.83.9,11.22,1.8,16.6.45,2.69,5.79,16.44,5.79,16.44.46.91,3.64,9.55,3.64,9.55a38.33,38.33,0,0,1,2.73,30,36.8,36.8,0,0,1-10.78,17.26V458.2c1.86,11.57,23.22,22,23.22,22H513.19A61.7,61.7,0,0,0,519,477c.59-.37,1.21-.77,1.84-1.19,1.27-.85,2.59-1.8,3.89-2.85.9-.73,1.8-1.51,2.65-2.33.69-.66,1.35-1.35,2-2.06,2.67-3.09,4.49-6.62,4.16-10.33v-3.56a21.26,21.26,0,0,1,2.45-5.21,11.06,11.06,0,0,1,2.16-2.36c49.83-39.15,90.77-109.89,73.41-159.73-6.22-18.68-23.13-40.93-67.63-43.6A11.1,11.1,0,0,1,539.33,242.35ZM508.48,461c0,.06,0,.12,0,.18a7.45,7.45,0,0,1-.19,1c-.06.23-.13.46-.21.68,0,0,0,.08,0,.12l0,.1a6.93,6.93,0,0,1-6.47,4.24H335.17a7.2,7.2,0,0,1-7.26-6.6c0-.11,0-.21,0-.31s0-.4,0-.6,0-.12,0-.18a7.51,7.51,0,0,1,.2-1,5.49,5.49,0,0,1,.21-.69.49.49,0,0,1,0-.11.79.79,0,0,1,0-.09,6.93,6.93,0,0,1,6.47-4.25H501.23a7.21,7.21,0,0,1,7.27,6.6v.31C508.5,460.58,508.5,460.78,508.48,461ZM586.9,294.91c8.89,25.36-5.79,68.07-36,103.67a11,11,0,0,1-7.57,3.56,8.6,8.6,0,0,1-3.56-.45,9.07,9.07,0,0,1-6.23-8.9V278.44a10.5,10.5,0,0,1,3.12-7.11c2.22-1.78,4.89-3.12,7.56-2.67C572.66,270.88,583.34,284.23,586.9,294.91Z"/><path class="cls-1" d="M292.88,270.44a18.41,18.41,0,0,1-1.78-4c-.45-1.33-1.34-3.11-1.78-4.89-.45-.89-.45-2.23-.89-3.12a26.47,26.47,0,0,1-.89-3.11c-.45-1.34-.45-2.22-.89-3.56s-.45-2.67-.89-4a42,42,0,0,1-1.78-8c-.89-5.79-1.78-11.57-2.22-17.8a56.08,56.08,0,0,1-.45-8.9c-.44-2.67,0-5.78,0-8.45,10.68-.45,20-4.9,27.59-11.13a69.71,69.71,0,0,0,59.62,33.82,68.78,68.78,0,0,0,59.62-33.82,47.57,47.57,0,0,0,30.25,11.13,44.67,44.67,0,0,0,26.25-8A56.57,56.57,0,1,0,528.21,101a56.09,56.09,0,0,0-46.68,20.85,46.44,46.44,0,0,0-53.39,4.89,69.74,69.74,0,0,0-59.62-33.81c-25.36,0-47.61,13.35-59.18,33.81a47.63,47.63,0,0,0-30.25-11.12c-24.92,0-45.39,20-45.39,44.49,0,18.69,12,34.71,28.92,41.38V213c0,2.67-.44,5.78-.44,8.9-.45,6.23-1.34,12-2.23,17.8-.44,2.67-1.33,5.34-1.78,8-.44,1.33-.44,2.66-.89,4s-.44,2.22-.89,3.56c-.44.89-.44,2.22-.88,3.11a30.54,30.54,0,0,1-.89,3.12c-.45,1.78-1.34,3.56-1.78,4.89a18.41,18.41,0,0,1-1.78,4A23.36,23.36,0,0,0,272,304.7,24.12,24.12,0,0,0,283.09,302,23,23,0,0,0,292.88,270.44Zm-28,25.8a6.37,6.37,0,0,1-3.11.89,4,4,0,0,1-3.11-1.33c-.45-.45-7.57-8.46-6.68-18.69a4.47,4.47,0,0,1,8.9.89c-.44,6.23,4.45,12,4.45,12C267.15,291.79,266.7,294.46,264.92,296.24Zm7.57-162a23.84,23.84,0,0,0-24,23.58,23,23,0,0,0,15.13,21.8,4.64,4.64,0,0,1,2.67,5.79,3.82,3.82,0,0,1-4,3.11,3.4,3.4,0,0,1-1.78-.44,32.14,32.14,0,0,1-20.91-30.26,32.76,32.76,0,0,1,32.93-32.48,4.46,4.46,0,0,1,4.45,4.45A4.2,4.2,0,0,1,272.49,134.29Z"/><path class="cls-2" d="M272.49,125.39a32.76,32.76,0,0,0-32.93,32.48,32.14,32.14,0,0,0,20.91,30.26,3.4,3.4,0,0,0,1.78.44,3.82,3.82,0,0,0,4-3.11,4.64,4.64,0,0,0-2.67-5.79,23,23,0,0,1-15.13-21.8,23.84,23.84,0,0,1,24-23.58,4.2,4.2,0,0,0,4.45-4.45A4.46,4.46,0,0,0,272.49,125.39Z"/><path class="cls-2" d="M260.92,278a4.47,4.47,0,0,0-8.9-.89c-.89,10.23,6.23,18.24,6.68,18.69a4,4,0,0,0,3.11,1.33,6.37,6.37,0,0,0,3.11-.89c1.78-1.78,2.23-4.45.45-6.23C265.37,290,260.48,284.23,260.92,278Z"/><path class="cls-2" d="M501.23,453.48H334.9a6.93,6.93,0,0,0-6.47,4.25c0,.06-.05.13-.08.2a5.49,5.49,0,0,0-.21.69,7.51,7.51,0,0,0-.2,1c0,.06,0,.12,0,.18s0,.4,0,.6,0,.2,0,.31a7.2,7.2,0,0,0,7.26,6.6H501.5a6.93,6.93,0,0,0,6.47-4.24l.09-.22c.08-.22.15-.45.21-.68a7.45,7.45,0,0,0,.19-1c0-.06,0-.12,0-.18,0-.21,0-.41,0-.6v-.31A7.21,7.21,0,0,0,501.23,453.48Z"/><path class="cls-2" d="M328.39,457.82a.49.49,0,0,0,0,.11c0-.07,0-.14.08-.2A.79.79,0,0,0,328.39,457.82Z"/><path class="cls-2" d="M508,463s0-.08,0-.12l-.09.22Z"/><path class="cls-2" d="M536.62,271.33a10.5,10.5,0,0,0-3.12,7.11V392.79a9.07,9.07,0,0,0,6.23,8.9,8.6,8.6,0,0,0,3.56.45,11,11,0,0,0,7.57-3.56c30.25-35.6,44.93-78.31,36-103.67-3.56-10.68-14.24-24-42.72-26.25C541.51,268.21,538.84,269.55,536.62,271.33Zm19.62,18.24c8.46,2.22,13.35,6.23,15.57,11.57,4,12-.44,35.59-15.57,60.95Z"/><path class="cls-2" d="M280.42,458.2C280.54,480.89,322,498,322,498H512.72s40.48-16.64,40.92-38.88c52.5-43.61,96.54-119.69,76.08-178.42-6.23-18.69-24.92-49.83-78.42-55.62v-1.48c21.83-8.25,39.13-26.71,44.56-50.29,10.91-47.44-24.7-89.46-70.24-89.46a72,72,0,0,0-48,18.39,58.76,58.76,0,0,0-19.74-3.14,65.16,65.16,0,0,0-26.46,5.83C414.36,87.85,391,77.09,366.36,77.09a86.59,86.59,0,0,0-64.15,28.71A60,60,0,0,0,275.74,100c-33.65,0-61,26.92-61,60.12a58.1,58.1,0,0,0,29.6,51.15c0,.45,1.9,6.25,1.46,9.37-.45,5.33-.89,11.12-1.78,16.46-.44,2.22-4.12,16.9-4.12,16.9v-.26c-.46.91-1.84,5-2.31,6.36a11.7,11.7,0,0,0-1.38,3.19,39.11,39.11,0,0,0,0,36.37c6.91,13.18,20.25,20.91,35.44,20.91a41.62,41.62,0,0,0,8.78-.92V458.2Zm331.1-170.86c17.36,49.84-23.58,120.58-73.41,159.73a11.06,11.06,0,0,0-2.16,2.36,21.26,21.26,0,0,0-2.45,5.21v3.56c.33,3.71-1.49,7.24-4.16,10.33-.62.71-1.28,1.4-2,2.06-.85.82-1.75,1.6-2.65,2.33-1.3,1.05-2.62,2-3.89,2.85-.63.42-1.25.82-1.84,1.19a61.7,61.7,0,0,1-5.8,3.21H321.43s-21.36-10.4-23.22-22V310.07A36.8,36.8,0,0,0,309,292.81a38.33,38.33,0,0,0-2.73-30s-3.18-8.64-3.64-9.55c0,0-5.34-13.75-5.79-16.44-.9-5.38-1.35-10.77-1.8-16.6a12.4,12.4,0,0,0-.45-4,72.43,72.43,0,0,0,9-3.59A75,75,0,0,0,321,227.35V409c-.53,17.35,30.76,30.66,30.76,30.66H484.9s31.29-13.75,30.81-30.66V227.64a91.69,91.69,0,0,0,10.29.65c1.35,0,2.69,0,4-.12s2.47-.19,3.54-.33h0V234a13.15,13.15,0,0,0,1.84,4.6,11.78,11.78,0,0,0,2.45,2.75,11.61,11.61,0,0,0,1.54,1,11.1,11.1,0,0,0,4.56,1.39C588.39,246.41,605.3,268.66,611.52,287.34ZM337.76,394.78h0V251.1h0a6.16,6.16,0,0,1,4.26-5.92c5.21-1.59,9.58,1.63,9.58,6.26v143c0,4.63-4.37,7.86-9.58,6.26A6.14,6.14,0,0,1,337.76,394.78ZM272,304.7a23.36,23.36,0,0,1-20.91-34.26,18.41,18.41,0,0,0,1.78-4c.44-1.33,1.33-3.11,1.78-4.89a30.54,30.54,0,0,0,.89-3.12c.44-.89.44-2.22.88-3.11.45-1.34.45-2.23.89-3.56s.45-2.67.89-4c.45-2.67,1.34-5.34,1.78-8,.89-5.79,1.78-11.57,2.23-17.8,0-3.12.44-6.23.44-8.9V201.47c-16.9-6.67-28.92-22.69-28.92-41.38,0-24.47,20.47-44.49,45.39-44.49a47.63,47.63,0,0,1,30.25,11.12c11.57-20.46,33.82-33.81,59.18-33.81a69.74,69.74,0,0,1,59.62,33.81,46.44,46.44,0,0,1,53.39-4.89,56.56,56.56,0,1,1,44.05,92.1,56.76,56.76,0,0,1-40.94-17.35,44.67,44.67,0,0,1-26.25,8,47.57,47.57,0,0,1-30.25-11.13,68.78,68.78,0,0,1-59.62,33.82,69.71,69.71,0,0,1-59.62-33.82c-7.57,6.23-16.91,10.68-27.59,11.13,0,2.67-.44,5.78,0,8.45a56.08,56.08,0,0,0,.45,8.9c.44,6.23,1.33,12,2.22,17.8a42,42,0,0,0,1.78,8c.44,1.33.44,2.67.89,4s.44,2.22.89,3.56a26.47,26.47,0,0,0,.89,3.11c.44.89.44,2.23.89,3.12.44,1.78,1.33,3.56,1.78,4.89a18.41,18.41,0,0,0,1.78,4A23,23,0,0,1,283.09,302,24.12,24.12,0,0,1,272,304.7Z"/><path class="cls-2" d="M530,228.17c1.27-.07,2.47-.19,3.54-.33C532.43,228,531.23,228.1,530,228.17Z"/><path class="cls-2" d="M533.5,458.2c.33,3.71-1.49,7.24-4.16,10.33,2.67-3.09,4.49-6.62,4.16-10.33v-3.56a21.26,21.26,0,0,1,2.45-5.21,21.26,21.26,0,0,0-2.45,5.21Z"/><path class="cls-2" d="M535.34,238.55a13.15,13.15,0,0,1-1.84-4.6v-6.11h0V234A13.15,13.15,0,0,0,535.34,238.55Z"/><path class="cls-3" d="M535.34,238.55a10.88,10.88,0,0,0,.95,1.28"/><path class="cls-1" d="M838.67,383.54c6.55-8.06,10.58-16.63,10.58-23.68,0-9.08-9.07-17.14-31.75-19.16-19.15,4-38.3,5-48.89,2-8.16,16-16.11,32.43-22.62,48L812.14,407C822.5,400.08,831.77,392.13,838.67,383.54Z"/><path class="cls-1" d="M754,466.7a52.56,52.56,0,0,1-23.69-5C709.14,451.58,694,431.42,694,415.3a36,36,0,0,1,.43-4.88l-57.29-14L678,572.33l260.08,39L814.39,451.08a219,219,0,0,1-39.23,13.61A107.07,107.07,0,0,1,754,466.7Z"/><path class="cls-1" d="M746.94,432.94a118.94,118.94,0,0,0,20.69-4.61l-32.12-7.86C733.53,430.63,737.77,434.25,746.94,432.94Z"/><path class="cls-2" d="M680.33,378.3l-46.8-1.16-5,20,26.51,177-258.28,42,25.32-97H398.76l-25.88,98.92L149.32,578.51,262.53,417.56s1.7-52.13-2.88-46.13L90.72,580.61a23,23,0,0,0-3.07,22,22.51,22.51,0,0,0,17.16,14l269.78,47.8a23,23,0,0,0,7.68.08l289.91-47.24,314.89,47.24a17.69,17.69,0,0,0,3.37.31,22.69,22.69,0,0,0,17.95-36.58L856.82,455.92a205.74,205.74,0,0,1-29.43,16.16L938.06,611.34,678,572.33,637.16,396.4l34.29,12"/><path class="cls-2" d="M1979.7,379.51c-5-11.09-12.6-9.07-17.13.51-15.12,35.28-43.85,66-62,66-7.06,0-11.09-8.57-11.09-21.67A84.27,84.27,0,0,1,1893,402.7c9.07-25.71,33.76-60,55.43-85.18,6-6.55,8.57-13.1,8.57-19.15,0-12.6-8.57-26.21-15.12-34.78-6-8.06-13.1-4.53-21.16.51-16.64,10.58-29.74,17.64-43.85,21.16,5.54-16.63,9.57-31.75,9.57-42.33,0-11.09-4-17.64-14.61-17.64-17.14.5-50.91,37.29-50.91,64,0,9.07,5,16.63,14.12,22.17-26.72,61.49-79.13,134.07-129.53,134.07-14.11,0-23.19-15.12-23.19-38.31a106.82,106.82,0,0,1,4.54-29.73,61,61,0,0,0,35.78,11.08c22.18,0,41.33-12.6,55.95-30.74,13.61-17.64,21.17-38.3,21.17-52.92a35.48,35.48,0,0,0-4.54-16.63c-8.06-10.08-17.64-17.64-31.25-26.21-5-3-10.58-4-17.13-4-28.73,0-70.06,28.22-96.27,79.63-9.11,18.23-14.09,36.45-15,52.82-8.9,17-21.12,29.77-37.45,40.92,5.55-11.08,8.07-25.2,8.57-37.8,1-27.21-5.54-60-5.54-95.76,0-6.55.5-15.12,1-21.16,15.63-25.71,12.6-36.8-1-36.8-7.56,0-16.64,3.53-24.7,10.59-11.59,9.57-17.64,21.17-19.66,39.31-13.1,21.67-30.74,47.88-47.37,71.57-1.51-12.1-9.07-14.62-19.15-6.05-11.09,9.58-16.13,24.19-16.13,39.31a68.05,68.05,0,0,0,8.57,33.27c17.13,31.75,47.37,39.81,77.61,38.8,31.49-1.26,61.22-14.77,81.34-39.63,10.23,23.21,32.77,38.48,65.82,38.12,61.49-1,115.42-62.49,156.75-148.68a101.12,101.12,0,0,0,37.29-8.57c-20.16,23.69-39.81,51.41-48.38,78.63-3.53,10.58-5,19.65-5,27.72,0,29.73,17.64,51.91,49.39,51.91,29.74,0,67-21.67,79.63-52.92C1983.74,399.17,1982.22,385.06,1979.7,379.51Zm-281.23-29.73c20.67-40.83,54.94-70.06,64-63,5,4-6.55,28.72-20.66,46.87-10.08,13.61-23.69,28.22-36.8,28.22a24.59,24.59,0,0,1-11.08-3A71.8,71.8,0,0,1,1698.47,349.78ZM1543.25,443c-11.09,0-21.67-17.64-27.72-41.33,15.12-21.67,29.23-43.35,41.32-62.5,1,13.61,1.52,29.74,1.52,45.87C1558.37,417.82,1553.83,443,1543.25,443Z"/><path class="cls-2" d="M1492.85,257c-9.07,0-50.4,22.68-60,112.39-26.2,44.86-53.42,76.11-68,76.11-4.54,0-6.56-4-6.56-11.09s3-17.64,9.08-29.74c18.14-38.81,39.81-69,47.88-85.68,12.09-24.69,12.09-44.85-1.52-59.47-5.54-5.54-12.6-5-19.15,3.53-9.07,11.59-18.14,27.21-27.21,44.35-9.58,17.14-19.66,36.79-42.34,74.09-21.67,35.78-38.3,62.49-51.41,62.49-4,0-4.53-3.52-4.53-9.57,0-7.56,2-17.14,6-27.72a574.44,574.44,0,0,1,39.82-74.09c11.59-18.65,17.64-33.77,17.64-45.86,0-8.57-6-20.16-10.08-25.71-5-7-13.1-6-19.15,2-28.73,39.81-56.45,95.25-69,126.5-.51,1.28-1,2.56-1.42,3.83-20.69,26.89-49.62,53.12-81.74,53.12-15.12,0-24.19-15.62-24.19-37.8a106.79,106.79,0,0,1,4.53-29.73c11.6,7.56,23.69,11.09,35.79,11.09,44.35,0,78.12-52.92,78.12-83.16,0-6.56-2-14.12-5-18.65-7.06-10.08-17.14-18.15-31.25-26.21-5-3-10.58-4-17.64-4-29.23,0-70.06,26.71-96.26,80.13-8.8,16.75-13.75,33.15-15.18,48.62-15.54,34.2-35.42,61.76-52.35,61.76-7.06,0-11.09-8.06-11.09-21.17,0-29.73,28.73-69.55,55.94-100.8,5.55-6.55,8.07-13.61,8.07-19.65,0-12.1-7.56-25.2-14.62-32.26-6.55-6.55-11.59-5.54-20.16.5q-22.68,16.63-40.82,21.17c5.54-16.13,9.07-30.74,9.07-40.32,0-11.59-4.54-17.64-15.12-17.64-15.62,0-47.88,35.79-47.88,61.49,0,6.55,3.53,13.1,9.57,18.65-27.72,34.27-53.42,75.6-62,91.73q-10.57,19.65-10.58,36.28a40,40,0,0,0,12.6,29.74c9.07,9.58,15.62,5,17.64-4,7.06-34.78,35.78-81.15,73.58-146.67a105.7,105.7,0,0,0,36.79-8.06c-25.2,30.74-51.91,69.55-51.91,101.81,0,27.21,16.63,48.89,47.38,48.89,24,0,48.73-15.16,63.26-36.91,10.89,21.67,32.94,35.74,64.75,35.39,27.41-.35,55.3-12,76.86-29.4,3.42,15.83,14,26.88,33,26.88,21.67,0,41.83-13.61,55.94-28.72,3.53,16.63,16.13,30.74,36.29,31.24,35.28,1,71.57-37.8,105.84-94.75,31.75-53.42,40.32-75.6,43.34-94.25C1505.45,265.61,1501.92,257,1492.85,257Zm-285.26,29.74c5.54,4.53-5,28.22-19.66,47.88-10.08,13.6-26.21,28.72-38.3,28.72a20.35,20.35,0,0,1-11.09-3.52C1162.73,311.47,1200,280.73,1207.59,286.78Z"/><path class="cls-2" d="M857.32,327.1c32.76-16.13,60.48-40.32,73.08-57.46,12.6-16.13,21.67-36.79,21.67-54.43,0-58-30.75-76.61-66-73.59-38.8,3.53-83.16,27.72-113.9,29.74-10.08.51-12.6,5-9.57,12.1,4,8.06,13.6,19.15,31.24,21.67C759.58,257.46,723,327.82,703.33,380.3q-.9,2.4-1.75,4.76a126.15,126.15,0,0,0-7.13,25.36,36,36,0,0,0-.43,4.88c0,16.12,15.12,36.28,36.29,46.36a52.56,52.56,0,0,0,23.69,5,107.07,107.07,0,0,0,21.16-2,219,219,0,0,0,39.23-13.61,205.74,205.74,0,0,0,29.43-16.16,115.63,115.63,0,0,0,21.06-17.61C879,402.7,884.53,386.06,884.53,372,884.53,352.3,872.44,336.17,857.32,327.1ZM822,247.46c12.09-22.68,15.62-37.29,15.12-48.38,32.76-11.09,53.42-18.65,67-18.65a17,17,0,0,1,17.13,17.14c.51,33.77-51.91,87.69-134.56,109.87C809.44,270.14,816.49,258.05,822,247.46Zm16.63,136.08c-6.9,8.59-16.17,16.54-26.53,23.48a175.91,175.91,0,0,1-44.51,21.31,118.94,118.94,0,0,1-20.69,4.61c-9.17,1.31-13.41-2.31-11.43-12.47a43.35,43.35,0,0,1,1.35-5.17c2.48-7.81,5.6-16.05,9.13-24.53,6.51-15.62,14.46-32,22.62-48,10.59,3,29.74,2,48.89-2,22.68,2,31.75,10.08,31.75,19.16C849.25,366.91,845.22,375.48,838.67,383.54Z"/></svg>